<svg xmlns="http://www.w3.org/2000/svg" width="1600" height="900" viewBox="0 0 1600 900">
  <defs>
    <linearGradient id="bg" x1="0" x2="1" y1="0" y2="1">
      <stop offset="0" stop-color="#0c0e13"/>
      <stop offset="1" stop-color="#07080a"/>
    </linearGradient>
    <radialGradient id="glow" cx="25%" cy="10%" r="70%">
      <stop offset="0" stop-color="#7c3aed" stop-opacity="0.55"/>
      <stop offset="0.55" stop-color="#06b6d4" stop-opacity="0.18"/>
      <stop offset="1" stop-color="#000" stop-opacity="0"/>
    </radialGradient>
  </defs>
  <rect width="1600" height="900" rx="64" fill="url(#bg)"/>
  <rect width="1600" height="900" rx="64" fill="url(#glow)"/>
  <g opacity="0.18" stroke="#ececf1" stroke-width="2">
    <path d="M0 120h1600M0 240h1600M0 360h1600M0 480h1600M0 600h1600M0 720h1600M0 840h1600"/>
    <path d="M160 0v900M320 0v900M480 0v900M640 0v900M800 0v900M960 0v900M1120 0v900M1280 0v900M1440 0v900"/>
  </g>
  <text x="80" y="150" fill="#ececf1" opacity="0.35" font-size="44" font-family="ui-sans-serif, system-ui, -apple-system">
    Project Screenshot Placeholder
  </text>
</svg>

